<svg version="1.1" id="Layer_1" xmlns="http://www.w3.org/2000/svg" xmlns:xlink="http://www.w3.org/1999/xlink" x="0px" y="0px"
	 width="100%" viewBox="0 0 500 500" enable-background="new 0 0 500 500" xml:space="preserve">
<path fill="#FFFEFE" opacity="1.000000" stroke="none" 
	d="
M501.000000,178.000000 
	C501.000000,285.999969 501.000000,393.499939 501.000000,500.999939 
	C334.333405,500.999939 167.666794,500.999939 1.000147,500.999969 
	C1.000098,334.333435 1.000098,167.666870 1.000049,1.000237 
	C167.666519,1.000158 334.333038,1.000158 500.999786,1.000079 
	C501.000000,59.833332 501.000000,118.666664 501.000000,178.000000 
M199.273666,16.108772 
	C198.513748,16.178875 197.753845,16.248978 196.065231,16.197174 
	C177.566711,16.182346 159.067581,16.081577 140.570099,16.213158 
	C135.949341,16.246027 131.272934,16.692429 126.726021,17.519817 
	C99.690384,22.439430 77.499443,36.041313 59.104870,56.081593 
	C31.060146,86.635384 16.441399,122.713089 16.226311,164.210297 
	C15.931752,221.039505 16.135000,277.871399 16.181833,334.702087 
	C16.186203,340.006409 16.453617,345.321198 16.846870,350.612701 
	C18.574354,373.857147 25.392523,395.604431 36.990017,415.748810 
	C54.750362,446.597931 78.982872,470.094147 113.606483,481.264313 
	C124.528908,484.788055 135.725189,486.635742 147.362778,485.570587 
	C147.362778,413.770630 147.362778,342.402771 147.362778,270.315430 
	C140.888000,276.568390 133.971146,279.247589 125.596008,277.187805 
	C117.272919,275.140778 113.217522,268.520660 109.395424,261.393890 
	C99.192780,276.848206 88.738449,280.942261 71.946556,276.570618 
	C63.302341,274.320190 56.822021,267.522461 56.285057,259.820953 
	C60.975983,259.118408 65.693863,258.411804 70.301819,257.721680 
	C74.135956,265.674988 79.410179,268.367737 87.432907,265.833191 
	C89.654518,265.131348 91.205185,262.305725 93.063675,260.454468 
	C91.291885,258.976593 89.744530,256.837311 87.705986,256.145660 
	C81.734871,254.119720 75.462807,252.976013 69.503052,250.922455 
	C60.781952,247.917450 57.478703,242.808731 57.784958,234.020416 
	C58.038185,226.753830 62.793034,221.114853 70.839775,218.959656 
	C78.730949,216.846115 86.686195,217.113892 94.475609,219.445663 
	C100.760536,221.327057 105.260132,227.069153 105.706902,233.338257 
	C101.367325,234.159760 96.997978,234.986908 92.716545,235.797409 
	C88.211601,229.122528 82.778175,227.147736 75.558144,229.799347 
	C74.086174,230.339920 72.161583,231.981567 72.062508,233.242661 
	C71.971199,234.404999 73.827682,236.405151 75.218948,236.876175 
	C80.246033,238.578094 85.460472,239.716400 90.563400,241.207108 
	C97.232399,243.155289 104.026741,244.971298 107.813004,252.892792 
	C107.464653,240.441269 108.118294,229.178116 118.581482,221.978500 
	C129.179352,214.686203 139.393799,216.164444 148.521561,225.815018 
	C148.701187,223.122238 148.829117,221.204437 148.957748,219.276184 
	C153.618713,219.276184 157.886139,219.276184 162.647430,219.276184 
	C162.647430,308.111145 162.647430,396.693268 162.647430,485.681335 
	C174.420761,485.681335 185.702789,485.681335 197.727737,485.897461 
	C198.491623,485.829559 199.255524,485.761688 200.945648,485.820435 
	C242.309128,485.830322 283.672607,485.848999 325.036072,485.839722 
	C330.677917,485.838470 336.319763,485.697632 342.885834,485.807434 
	C347.717285,485.824097 352.549164,485.806885 357.380157,485.863129 
	C382.896729,486.160156 405.559967,477.641907 425.178589,461.955750 
	C465.336151,429.847687 485.377502,387.492737 485.761688,336.218781 
	C486.182373,280.073425 485.876404,223.922424 485.827240,167.773926 
	C485.822449,162.303604 485.566925,156.820328 485.138702,151.365753 
	C482.816559,121.787674 472.424408,95.155167 455.323029,71.080368 
	C451.555756,65.776863 447.164154,60.916847 443.060059,55.852600 
	C442.643524,56.060627 442.227020,56.268658 441.810486,56.476688 
	C441.810486,129.656738 441.810486,202.836792 441.810486,276.165955 
	C436.927643,276.165955 432.561951,276.165955 428.086090,276.165955 
	C427.935028,273.745880 427.808685,271.721710 427.657959,269.306763 
	C410.204254,286.856659 390.474792,274.444031 387.676208,256.913971 
	C386.572906,250.003113 386.872833,242.547409 388.172913,235.648712 
	C390.134369,225.240570 397.810944,219.019760 408.295319,217.711746 
	C415.321960,216.835083 421.154724,219.757736 426.749146,224.873230 
	C426.823730,223.370407 426.893768,222.617157 426.893829,221.863892 
	C426.898682,162.882935 426.935944,103.901848 426.745972,44.921505 
	C426.739044,42.779255 425.008026,39.970661 423.216797,38.607567 
	C399.155396,20.296871 371.773376,13.828557 341.046936,16.197685 
	C325.265472,16.181765 309.483948,16.138987 293.702515,16.155615 
	C262.474213,16.188515 231.245926,16.254250 199.273666,16.108772 
M423.379089,260.703918 
	C427.664246,253.524414 427.475983,245.931839 425.240204,238.250748 
	C423.689056,232.921600 419.201965,229.414062 414.495392,229.450012 
	C409.717346,229.486496 404.544769,232.855515 403.738403,238.190430 
	C402.823456,244.243408 402.394653,250.785004 403.725708,256.668182 
	C405.902008,266.287476 415.577606,268.238495 423.379089,260.703918 
M127.931717,262.549469 
	C134.353470,267.071228 139.724655,266.357147 144.348328,260.366852 
	C149.014511,254.321548 149.108444,240.412201 144.523926,234.366669 
	C139.429047,227.648163 128.965729,228.442474 125.690453,236.432510 
	C122.205284,244.934570 121.821373,253.829971 127.931717,262.549469 
z"/>
<path fill="#EF3A24" opacity="1.000000" stroke="none" 
	d="
M196.984818,485.681335 
	C185.702789,485.681335 174.420761,485.681335 162.647430,485.681335 
	C162.647430,396.693268 162.647430,308.111145 162.647430,219.276184 
	C157.886139,219.276184 153.618713,219.276184 148.957748,219.276184 
	C148.829117,221.204437 148.701187,223.122238 148.521561,225.815018 
	C139.393799,216.164444 129.179352,214.686203 118.581482,221.978500 
	C108.118294,229.178116 107.464653,240.441269 107.813004,252.892792 
	C104.026741,244.971298 97.232399,243.155289 90.563400,241.207108 
	C85.460472,239.716400 80.246033,238.578094 75.218948,236.876175 
	C73.827682,236.405151 71.971199,234.404999 72.062508,233.242661 
	C72.161583,231.981567 74.086174,230.339920 75.558144,229.799347 
	C82.778175,227.147736 88.211601,229.122528 92.716545,235.797409 
	C96.997978,234.986908 101.367325,234.159760 105.706902,233.338257 
	C105.260132,227.069153 100.760536,221.327057 94.475609,219.445663 
	C86.686195,217.113892 78.730949,216.846115 70.839775,218.959656 
	C62.793034,221.114853 58.038185,226.753830 57.784958,234.020416 
	C57.478703,242.808731 60.781952,247.917450 69.503052,250.922455 
	C75.462807,252.976013 81.734871,254.119720 87.705986,256.145660 
	C89.744530,256.837311 91.291885,258.976593 93.063675,260.454468 
	C91.205185,262.305725 89.654518,265.131348 87.432907,265.833191 
	C79.410179,268.367737 74.135956,265.674988 70.301819,257.721680 
	C65.693863,258.411804 60.975983,259.118408 56.285057,259.820953 
	C56.822021,267.522461 63.302341,274.320190 71.946556,276.570618 
	C88.738449,280.942261 99.192780,276.848206 109.395424,261.393890 
	C113.217522,268.520660 117.272919,275.140778 125.596008,277.187805 
	C133.971146,279.247589 140.888000,276.568390 147.362778,270.315430 
	C147.362778,342.402771 147.362778,413.770630 147.362778,485.570587 
	C135.725189,486.635742 124.528908,484.788055 113.606483,481.264313 
	C78.982872,470.094147 54.750362,446.597931 36.990017,415.748810 
	C25.392523,395.604431 18.574354,373.857147 16.846870,350.612701 
	C16.453617,345.321198 16.186203,340.006409 16.181833,334.702087 
	C16.135000,277.871399 15.931752,221.039505 16.226311,164.210297 
	C16.441399,122.713089 31.060146,86.635384 59.104870,56.081593 
	C77.499443,36.041313 99.690384,22.439430 126.726021,17.519817 
	C131.272934,16.692429 135.949341,16.246027 140.570099,16.213158 
	C159.067581,16.081577 177.566711,16.182346 196.763107,16.472923 
	C198.295898,16.876059 199.130798,17.003443 200.238770,17.374252 
	C202.578369,18.208794 204.691162,18.673449 206.704437,19.410105 
	C234.276566,29.498745 257.508514,45.537769 275.546021,68.972466 
	C296.212799,95.823174 305.957794,126.378922 306.879852,159.920822 
	C307.050781,166.138504 305.602600,172.391327 305.040436,178.640396 
	C303.749878,192.987534 299.718536,206.563538 293.322571,219.414154 
	C288.184387,219.220337 283.458466,219.220337 278.400421,219.220337 
	C278.400421,226.206787 278.482513,232.666046 278.334290,239.120010 
	C278.302917,240.486450 277.429871,241.833557 276.956055,242.770966 
	C275.506927,231.095123 269.426544,223.165009 258.846191,219.463409 
	C247.783676,215.593109 237.009995,216.917130 228.216614,225.217789 
	C219.340530,233.596497 217.655334,244.310928 220.034454,255.909622 
	C222.842957,269.601715 235.388062,278.931122 249.707016,277.963013 
	C264.537415,276.960327 276.112000,265.898834 277.413086,252.011078 
	C278.026398,253.760696 278.372284,255.399658 278.359497,257.035828 
	C278.281403,267.048737 282.028900,274.440948 292.205750,277.946747 
	C302.037384,299.384766 307.161133,321.644806 306.766235,344.748871 
	C306.472168,361.953461 303.307861,378.947632 296.855804,395.136963 
	C285.966217,422.460846 269.177551,445.214508 245.186081,462.486755 
	C231.341431,472.453949 216.186081,479.724121 199.648071,484.901245 
	C198.547852,485.182739 197.766327,485.432037 196.984818,485.681335 
M166.579025,227.623505 
	C166.578888,237.788010 166.491653,247.953522 166.606873,258.116730 
	C166.694992,265.889252 168.896744,272.630768 176.760147,276.034668 
	C185.106430,279.647644 192.697754,277.894379 199.681335,272.543121 
	C201.030579,271.509186 202.171967,270.203979 203.825668,268.626740 
	C204.019928,271.785095 204.157715,274.025269 204.295731,276.269165 
	C209.028381,276.269165 213.309937,276.269165 217.726242,276.269165 
	C217.726242,257.131592 217.726242,238.246002 217.726242,219.194611 
	C212.632996,219.194611 207.853714,219.194611 202.520569,219.194611 
	C202.520569,222.494171 202.559357,225.622894 202.513245,228.750366 
	C202.378342,237.899506 202.502930,247.066071 201.945923,256.190399 
	C201.602814,261.810791 196.002487,266.138702 190.561523,265.969116 
	C185.470840,265.810394 182.374802,262.147308 182.072006,255.728012 
	C181.852631,251.077286 181.716553,246.419724 181.676666,241.764069 
	C181.612839,234.312592 181.659576,226.860184 181.659576,219.370026 
	C176.351791,219.370026 171.644165,219.370026 166.579483,219.370026 
	C166.579483,222.034363 166.579483,224.348022 166.579025,227.623505 
z"/>
<path fill="#F89820" opacity="1.000000" stroke="none" 
	d="
M341.962341,16.378654 
	C371.773376,13.828557 399.155396,20.296871 423.216797,38.607567 
	C425.008026,39.970661 426.739044,42.779255 426.745972,44.921505 
	C426.935944,103.901848 426.898682,162.882935 426.893829,221.863892 
	C426.893768,222.617157 426.823730,223.370407 426.749146,224.873230 
	C421.154724,219.757736 415.321960,216.835083 408.295319,217.711746 
	C397.810944,219.019760 390.134369,225.240570 388.172913,235.648712 
	C386.872833,242.547409 386.572906,250.003113 387.676208,256.913971 
	C390.474792,274.444031 410.204254,286.856659 427.657959,269.306763 
	C427.808685,271.721710 427.935028,273.745880 428.086090,276.165955 
	C432.561951,276.165955 436.927643,276.165955 441.810486,276.165955 
	C441.810486,202.836792 441.810486,129.656738 441.810486,56.476688 
	C442.227020,56.268658 442.643524,56.060627 443.060059,55.852600 
	C447.164154,60.916847 451.555756,65.776863 455.323029,71.080368 
	C472.424408,95.155167 482.816559,121.787674 485.138702,151.365753 
	C485.566925,156.820328 485.822449,162.303604 485.827240,167.773926 
	C485.876404,223.922424 486.182373,280.073425 485.761688,336.218781 
	C485.377502,387.492737 465.336151,429.847687 425.178589,461.955750 
	C405.559967,477.641907 382.896729,486.160156 357.380157,485.863129 
	C352.549164,485.806885 347.717285,485.824097 342.427429,485.271545 
	C341.980927,415.429688 341.992859,346.123688 342.424194,276.722626 
	C344.789948,276.532379 346.736328,276.437164 348.940460,276.329346 
	C348.940460,266.679749 348.812103,257.537750 349.002106,248.402359 
	C349.080872,244.615067 349.401398,240.721634 350.396179,237.091339 
	C351.791687,231.998489 357.266571,229.028137 362.570953,229.791641 
	C367.375824,230.483276 369.633301,233.185715 369.886566,239.440460 
	C370.195984,247.082901 370.170441,254.739609 370.246521,262.390564 
	C370.292053,266.967682 370.254883,271.545654 370.254883,276.277893 
	C375.620941,276.277893 380.208160,276.277893 384.927216,276.277893 
	C384.927216,261.198242 385.491791,246.389297 384.730225,231.648880 
	C384.216248,221.700974 374.595245,216.513947 364.525940,217.885330 
	C358.825409,218.661697 353.488129,222.105316 348.055542,224.319763 
	C347.995148,223.456665 347.852295,221.415924 347.701630,219.263565 
	C345.566681,219.102341 343.766327,218.966370 341.971344,218.372421 
	C341.971924,150.735840 341.967133,83.557251 341.962341,16.378654 
z"/>
<path fill="#F26724" opacity="1.000000" stroke="none" 
	d="
M341.504639,16.288170 
	C341.967133,83.557251 341.971924,150.735840 341.526794,218.447174 
	C338.815826,218.979904 336.554779,218.979904 334.283325,218.979904 
	C334.283325,238.478577 334.283325,257.322937 334.283325,276.302582 
	C337.079163,276.489105 339.541962,276.653412 342.004791,276.817688 
	C341.992859,346.123688 341.980927,415.429688 341.965332,485.178528 
	C336.319763,485.697632 330.677917,485.838470 325.036072,485.839722 
	C283.672607,485.848999 242.309128,485.830322 200.483475,485.550049 
	C200.021301,485.279633 199.966751,484.869019 199.966751,484.869019 
	C216.186081,479.724121 231.341431,472.453949 245.186081,462.486755 
	C269.177551,445.214508 285.966217,422.460846 296.855804,395.136963 
	C303.307861,378.947632 306.472168,361.953461 306.766235,344.748871 
	C307.161133,321.644806 302.037384,299.384766 292.650330,277.939972 
	C302.132111,279.239258 309.248108,275.205078 316.126709,268.507721 
	C316.126709,271.834534 316.126709,273.966614 316.126709,276.251648 
	C320.820831,276.251648 325.243591,276.251648 329.581512,276.251648 
	C329.581512,257.043640 329.581512,238.151917 329.581512,219.257568 
	C324.427216,219.257568 319.654083,219.257568 314.322418,219.257568 
	C314.322418,223.948471 314.361359,228.403580 314.313782,232.857773 
	C314.231995,240.512589 314.386047,248.185699 313.889587,255.815231 
	C313.506836,261.697815 307.851166,266.246979 302.289917,265.950623 
	C297.239868,265.681458 294.154999,262.094849 294.019867,255.529617 
	C293.773407,243.558868 293.813965,231.582184 293.734802,219.607986 
	C299.718536,206.563538 303.749878,192.987534 305.040436,178.640396 
	C305.602600,172.391327 307.050781,166.138504 306.879852,159.920822 
	C305.957794,126.378922 296.212799,95.823174 275.546021,68.972466 
	C257.508514,45.537769 234.276566,29.498745 206.704437,19.410105 
	C204.691162,18.673449 202.578369,18.208794 200.266190,17.168537 
	C200.020538,16.719398 200.017624,16.306414 200.017624,16.306414 
	C231.245926,16.254250 262.474213,16.188515 293.702515,16.155615 
	C309.483948,16.138987 325.265472,16.181765 341.504639,16.288170 
z"/>
<path fill="#F89A24" opacity="1.000000" stroke="none" 
	d="
M423.120331,260.978638 
	C415.577606,268.238495 405.902008,266.287476 403.725708,256.668182 
	C402.394653,250.785004 402.823456,244.243408 403.738403,238.190430 
	C404.544769,232.855515 409.717346,229.486496 414.495392,229.450012 
	C419.201965,229.414062 423.689056,232.921600 425.240204,238.250748 
	C427.475983,245.931839 427.664246,253.524414 423.120331,260.978638 
z"/>
<path fill="#EF3C27" opacity="1.000000" stroke="none" 
	d="
M127.662140,262.285950 
	C121.821373,253.829971 122.205284,244.934570 125.690453,236.432510 
	C128.965729,228.442474 139.429047,227.648163 144.523926,234.366669 
	C149.108444,240.412201 149.014511,254.321548 144.348328,260.366852 
	C139.724655,266.357147 134.353470,267.071228 127.662140,262.285950 
z"/>
<path fill="#F36957" opacity="1.000000" stroke="none" 
	d="
M199.645645,16.207592 
	C200.017624,16.306414 200.020538,16.719398 199.993134,16.925114 
	C199.130798,17.003443 198.295898,16.876059 197.227448,16.533878 
	C197.753845,16.248978 198.513748,16.178875 199.645645,16.207592 
z"/>
<path fill="#F36957" opacity="1.000000" stroke="none" 
	d="
M199.648071,484.901245 
	C199.966751,484.869019 200.021301,485.279633 200.020355,485.486725 
	C199.255524,485.761688 198.491623,485.829559 197.356277,485.789398 
	C197.766327,485.432037 198.547852,485.182739 199.648071,484.901245 
z"/>
<path fill="#FFFCFC" opacity="1.000000" stroke="none" 
	d="
M276.979828,251.899155 
	C276.112000,265.898834 264.537415,276.960327 249.707016,277.963013 
	C235.388062,278.931122 222.842957,269.601715 220.034454,255.909622 
	C217.655334,244.310928 219.340530,233.596497 228.216614,225.217789 
	C237.009995,216.917130 247.783676,215.593109 258.846191,219.463409 
	C269.426544,223.165009 275.506927,231.095123 276.969788,243.204590 
	C276.974609,246.670944 276.977234,249.285049 276.979828,251.899155 
M247.672592,264.987427 
	C252.219360,265.319946 255.922867,263.570892 258.355194,259.844849 
	C263.112061,252.557999 263.144470,244.684875 259.423584,237.133011 
	C256.107025,230.401794 247.312759,228.483826 241.441345,232.613815 
	C234.348251,237.603104 234.326080,245.092041 235.234314,252.428787 
	C236.051895,259.033447 239.800613,263.740570 247.672592,264.987427 
z"/>
<path fill="#FFFBF9" opacity="1.000000" stroke="none" 
	d="
M277.413086,252.011078 
	C276.977234,249.285049 276.974609,246.670944 276.958282,243.623215 
	C277.429871,241.833557 278.302917,240.486450 278.334290,239.120010 
	C278.482513,232.666046 278.400421,226.206787 278.400421,219.220337 
	C283.458466,219.220337 288.184387,219.220337 293.322571,219.414154 
	C293.813965,231.582184 293.773407,243.558868 294.019867,255.529617 
	C294.154999,262.094849 297.239868,265.681458 302.289917,265.950623 
	C307.851166,266.246979 313.506836,261.697815 313.889587,255.815231 
	C314.386047,248.185699 314.231995,240.512589 314.313782,232.857773 
	C314.361359,228.403580 314.322418,223.948471 314.322418,219.257568 
	C319.654083,219.257568 324.427216,219.257568 329.581512,219.257568 
	C329.581512,238.151917 329.581512,257.043640 329.581512,276.251648 
	C325.243591,276.251648 320.820831,276.251648 316.126709,276.251648 
	C316.126709,273.966614 316.126709,271.834534 316.126709,268.507721 
	C309.248108,275.205078 302.132111,279.239258 292.602966,277.564758 
	C282.028900,274.440948 278.281403,267.048737 278.359497,257.035828 
	C278.372284,255.399658 278.026398,253.760696 277.413086,252.011078 
z"/>
<path fill="#FFFCFC" opacity="1.000000" stroke="none" 
	d="
M166.579254,227.142593 
	C166.579483,224.348022 166.579483,222.034363 166.579483,219.370026 
	C171.644165,219.370026 176.351791,219.370026 181.659576,219.370026 
	C181.659576,226.860184 181.612839,234.312592 181.676666,241.764069 
	C181.716553,246.419724 181.852631,251.077286 182.072006,255.728012 
	C182.374802,262.147308 185.470840,265.810394 190.561523,265.969116 
	C196.002487,266.138702 201.602814,261.810791 201.945923,256.190399 
	C202.502930,247.066071 202.378342,237.899506 202.513245,228.750366 
	C202.559357,225.622894 202.520569,222.494171 202.520569,219.194611 
	C207.853714,219.194611 212.632996,219.194611 217.726242,219.194611 
	C217.726242,238.246002 217.726242,257.131592 217.726242,276.269165 
	C213.309937,276.269165 209.028381,276.269165 204.295731,276.269165 
	C204.157715,274.025269 204.019928,271.785095 203.825668,268.626740 
	C202.171967,270.203979 201.030579,271.509186 199.681335,272.543121 
	C192.697754,277.894379 185.106430,279.647644 176.760147,276.034668 
	C168.896744,272.630768 166.694992,265.889252 166.606873,258.116730 
	C166.491653,247.953522 166.578888,237.788010 166.579254,227.142593 
z"/>
<path fill="#FFFDFC" opacity="1.000000" stroke="none" 
	d="
M342.424194,276.722626 
	C339.541962,276.653412 337.079163,276.489105 334.283325,276.302582 
	C334.283325,257.322937 334.283325,238.478577 334.283325,218.979904 
	C336.554779,218.979904 338.815826,218.979904 341.521423,218.905151 
	C343.766327,218.966370 345.566681,219.102341 347.701630,219.263565 
	C347.852295,221.415924 347.995148,223.456665 348.055542,224.319763 
	C353.488129,222.105316 358.825409,218.661697 364.525940,217.885330 
	C374.595245,216.513947 384.216248,221.700974 384.730225,231.648880 
	C385.491791,246.389297 384.927216,261.198242 384.927216,276.277893 
	C380.208160,276.277893 375.620941,276.277893 370.254883,276.277893 
	C370.254883,271.545654 370.292053,266.967682 370.246521,262.390564 
	C370.170441,254.739609 370.195984,247.082901 369.886566,239.440460 
	C369.633301,233.185715 367.375824,230.483276 362.570953,229.791641 
	C357.266571,229.028137 351.791687,231.998489 350.396179,237.091339 
	C349.401398,240.721634 349.080872,244.615067 349.002106,248.402359 
	C348.812103,257.537750 348.940460,266.679749 348.940460,276.329346 
	C346.736328,276.437164 344.789948,276.532379 342.424194,276.722626 
z"/>
<path fill="#EF3B25" opacity="1.000000" stroke="none" 
	d="
M247.263824,264.981140 
	C239.800613,263.740570 236.051895,259.033447 235.234314,252.428787 
	C234.326080,245.092041 234.348251,237.603104 241.441345,232.613815 
	C247.312759,228.483826 256.107025,230.401794 259.423584,237.133011 
	C263.144470,244.684875 263.112061,252.557999 258.355194,259.844849 
	C255.922867,263.570892 252.219360,265.319946 247.263824,264.981140 
z"/>
</svg>